<svg width="39" height="39" viewBox="0 0 39 39" fill="none" xmlns="http://www.w3.org/2000/svg">
<path d="M35.7658 9.18023C35.678 9.00955 35.5512 8.86201 35.3956 8.74962C35.24 8.63723 35.0601 8.56317 34.8705 8.53347C34.6809 8.50378 34.4869 8.51928 34.3044 8.57872C34.122 8.63817 33.9561 8.73987 33.8203 8.87554L29.1403 13.5586C28.9106 13.785 28.601 13.9119 28.2785 13.9119C27.9559 13.9119 27.6463 13.785 27.4166 13.5586L25.3934 11.5324C25.2802 11.4192 25.1904 11.2849 25.1292 11.137C25.0679 10.9891 25.0364 10.8306 25.0364 10.6705C25.0364 10.5105 25.0679 10.352 25.1292 10.2041C25.1904 10.0562 25.2802 9.92182 25.3934 9.80865L30.0536 5.14769C30.1933 5.00801 30.297 4.83646 30.3557 4.64782C30.4143 4.45918 30.4263 4.2591 30.3905 4.06482C30.3546 3.87054 30.2721 3.68788 30.15 3.53258C30.0279 3.37727 29.8699 3.25398 29.6895 3.17332C26.1696 1.59961 21.776 2.42074 19.0057 5.17054C16.652 7.5075 15.9504 11.1592 17.0823 15.1894C17.1434 15.4044 17.1437 15.632 17.0833 15.8471C17.023 16.0622 16.9043 16.2564 16.7403 16.4082L4.05923 27.9901C3.56521 28.4337 3.16673 28.9732 2.8881 29.5759C2.60947 30.1785 2.45653 30.8316 2.43861 31.4952C2.42069 32.1589 2.53816 32.8193 2.78387 33.4361C3.02957 34.0529 3.39835 34.6131 3.86771 35.0827C4.33708 35.5523 4.89718 35.9213 5.51386 36.1673C6.13054 36.4133 6.79087 36.531 7.45456 36.5134C8.11825 36.4958 8.77139 36.3431 9.37414 36.0648C9.9769 35.7864 10.5166 35.3882 10.9604 34.8943L22.6665 22.1851C22.8161 22.0232 23.007 21.9053 23.2187 21.844C23.4304 21.7826 23.6548 21.7802 23.8677 21.8369C25.0151 22.1513 26.1987 22.3145 27.3884 22.3222C29.9325 22.3222 32.1651 21.4987 33.7754 19.9121C36.7575 16.9741 37.2123 11.991 35.7658 9.18023ZM7.57761 34.0603C7.07594 34.115 6.56964 34.0127 6.12859 33.7675C5.68753 33.5222 5.33347 33.1461 5.11526 32.6911C4.89705 32.2361 4.82546 31.7245 4.91036 31.2271C4.99525 30.7296 5.23246 30.2708 5.58924 29.9139C5.94602 29.557 6.40477 29.3196 6.9022 29.2345C7.39963 29.1495 7.9112 29.2209 8.36631 29.4389C8.82142 29.657 9.19763 30.0109 9.44302 30.4519C9.68842 30.8928 9.7909 31.3991 9.73632 31.9008C9.67626 32.4528 9.42955 32.9677 9.03699 33.3604C8.64444 33.7531 8.12958 34 7.57761 34.0603Z" fill="black"/>
</svg>
